# xmcd
#
# Track frame offsets:
#	150
#	14907
#	30790
#	47960
#	63161
#	79836
#	95062
#	109464
#	125673
#	140646
#	157199
#	172211
#
# Disc length: 2492 seconds
#
# Revision: 1
# Processed by: cddbd v1.5.2PL0 Copyright (c) Steve Scherf et al.
# Submitted via: audiograbber 1.83.01
#
DISCID=b209ba0c
DTITLE=Confederate Railroad - Lucky to Be Alive [Explicit]
DYEAR=2016
DGENRE=Country
TTITLE0=Lucky to Be Alive
TTITLE1=Played the Game
TTITLE2=If I Ever Cross That Line
TTITLE3=The Man I Am Today
TTITLE4=Trashy Women (20th Anniversary)
TTITLE5=Somebody Like You
TTITLE6=Goodbye Song
TTITLE7=Whiskey and Women
TTITLE8=Fast Cars, Guitars and Fine Tuned Women
TTITLE9=I'm Not Fallin' for That
TTITLE10=Psycho Bitch from Hell [Explicit]
TTITLE11=Don't Feel as Young as I Used To
EXTD=
EXTT0=
EXTT1=
EXTT2=
EXTT3=
EXTT4=
EXTT5=
EXTT6=
EXTT7=
EXTT8=
EXTT9=
EXTT10=
EXTT11=
PLAYORDER=
